<?xml version="1.0" encoding="utf-8"?>
	 
<svg version="1.1" id="Layer_2" xmlns="http://www.w3.org/2000/svg" xmlns:xlink="http://www.w3.org/1999/xlink" x="0px" y="0px" viewBox="0 0 2180 332" xml:space="default">
	 
<title>logo</title>
  <path  id="Selection"
        fill="#FFFFFF" stroke="black" stroke-width="0"
        d="M 259.91,21.65
           C 262.07,23.27 264.22,25.96 266.07,28.00
             268.74,30.93 271.17,33.27 272.55,37.00
             275.83,44.10 275.81,58.07 272.55,65.00
             270.72,68.16 267.75,71.29 265.42,74.00
             262.30,77.62 260.46,79.89 256.00,81.94
             251.42,84.05 248.86,83.99 244.00,84.00
             244.00,84.00 38.00,84.00 38.00,84.00
             26.15,83.98 22.45,82.04 14.73,73.00
             7.56,64.61 5.76,60.09 6.01,49.00
             6.29,37.07 15.26,24.01 26.00,19.06
             31.66,16.45 36.89,16.01 43.00,15.84
             43.00,15.84 168.00,15.84 168.00,15.84
             168.00,15.84 234.00,15.84 234.00,15.84
             241.66,15.36 253.68,16.97 259.91,21.65 Z
           M 374.00,248.14
           C 388.75,254.22 399.40,255.07 415.00,255.00
             434.84,254.91 453.00,244.87 453.00,223.00
             453.00,219.15 452.98,216.67 451.52,213.00
             446.48,200.29 430.76,190.65 419.00,184.75
             419.00,184.75 405.00,177.26 405.00,177.26
             382.06,165.42 353.14,150.83 353.00,121.00
             352.95,110.98 352.31,105.68 356.07,96.00
             365.14,72.62 395.34,60.04 419.00,60.00
             419.00,60.00 441.00,60.00 441.00,60.00
             452.48,60.14 460.33,63.13 471.00,66.00
             471.00,66.00 471.00,95.00 471.00,95.00
             471.00,95.00 452.00,86.75 452.00,86.75
             439.33,82.68 430.97,82.85 418.00,83.00
             396.50,83.26 373.30,99.04 380.77,123.00
             381.80,126.29 383.42,129.28 385.53,132.00
             391.60,139.85 400.54,144.64 409.00,149.42
             436.49,164.96 479.55,179.90 480.00,218.00
             480.09,225.92 480.32,231.26 477.96,239.00
             469.64,266.25 440.41,277.96 414.00,278.00
             414.00,278.00 397.00,278.00 397.00,278.00
             388.46,277.90 374.29,274.89 366.00,272.41
             363.06,271.53 356.59,269.56 354.60,267.35
             352.66,265.20 353.01,261.72 353.00,259.00
             353.00,259.00 353.00,237.00 353.00,237.00
             353.00,237.00 374.00,248.14 374.00,248.14 Z
           M 1924.00,259.00
           C 1924.00,261.12 1924.25,264.59 1923.01,266.36
             1920.58,269.82 1904.59,274.06 1900.00,275.11
             1876.86,280.44 1842.77,279.67 1821.00,269.69
             1794.30,257.46 1775.28,231.55 1769.45,203.00
             1766.36,187.88 1766.83,176.25 1767.00,161.00
             1767.08,154.86 1768.66,146.02 1770.13,140.00
             1778.99,103.72 1805.06,73.14 1842.00,63.63
             1860.02,58.99 1885.73,58.31 1904.00,62.00
             1908.10,62.83 1920.72,65.45 1923.01,68.65
             1924.25,70.39 1924.00,73.90 1924.00,76.00
             1924.00,76.00 1924.00,95.00 1924.00,95.00
             1916.25,92.79 1913.06,89.22 1898.00,85.47
             1875.59,79.90 1849.55,82.25 1830.00,95.10
             1804.96,111.55 1793.67,140.99 1793.01,170.00
             1792.90,174.90 1793.38,176.46 1793.83,181.00
             1795.95,202.21 1801.97,220.82 1818.00,235.91
             1836.90,253.70 1853.56,255.28 1878.00,255.00
             1888.26,254.88 1902.58,251.16 1912.00,247.13
             1916.70,245.11 1918.78,243.49 1924.00,242.00
             1924.00,242.00 1924.00,259.00 1924.00,259.00 Z
           M 680.00,64.00
           C 680.00,64.00 680.00,86.00 680.00,86.00
             680.00,86.00 620.00,86.00 620.00,86.00
             620.00,86.00 620.00,274.00 620.00,274.00
             620.00,274.00 595.00,274.00 595.00,274.00
             595.00,274.00 595.00,86.00 595.00,86.00
             595.00,86.00 535.00,86.00 535.00,86.00
             535.00,86.00 535.00,64.00 535.00,64.00
             535.00,64.00 680.00,64.00 680.00,64.00 Z
           M 730.58,255.00
           C 730.58,255.00 744.80,218.00 744.80,218.00
             744.80,218.00 785.68,112.00 785.68,112.00
             785.68,112.00 798.40,79.00 798.40,79.00
             798.40,79.00 804.07,65.57 804.07,65.57
             804.07,65.57 812.00,64.00 812.00,64.00
             812.00,64.00 832.00,64.00 832.00,64.00
             832.00,64.00 854.80,124.00 854.80,124.00
             854.80,124.00 893.42,224.00 893.42,224.00
             893.42,224.00 905.81,256.00 905.81,256.00
             905.81,256.00 912.00,274.00 912.00,274.00
             912.00,274.00 892.00,274.00 892.00,274.00
             888.83,273.99 885.36,274.51 883.22,271.69
             883.22,271.69 876.19,254.00 876.19,254.00
             876.19,254.00 862.00,215.00 862.00,215.00
             862.00,215.00 782.00,215.00 782.00,215.00
             779.35,215.01 775.75,214.65 773.70,216.60
             771.94,218.26 768.93,227.28 768.00,230.00
             768.00,230.00 757.67,259.00 757.67,259.00
             753.27,272.03 753.69,273.94 745.00,274.00
             745.00,274.00 724.00,274.00 724.00,274.00
             724.00,274.00 730.58,255.00 730.58,255.00 Z
           M 1003.00,64.00
           C 1003.00,64.00 1003.00,252.00 1003.00,252.00
             1003.00,252.00 1086.00,252.00 1086.00,252.00
             1086.00,252.00 1086.00,274.00 1086.00,274.00
             1086.00,274.00 978.00,274.00 978.00,274.00
             978.00,274.00 978.00,64.00 978.00,64.00
             978.00,64.00 1003.00,64.00 1003.00,64.00 Z
           M 1260.00,64.00
           C 1260.00,64.00 1260.00,86.00 1260.00,86.00
             1260.00,86.00 1179.00,86.00 1179.00,86.00
             1179.00,86.00 1179.00,159.00 1179.00,159.00
             1179.00,159.00 1254.00,159.00 1254.00,159.00
             1254.00,159.00 1254.00,181.00 1254.00,181.00
             1254.00,181.00 1179.00,181.00 1179.00,181.00
             1179.00,181.00 1179.00,274.00 1179.00,274.00
             1179.00,274.00 1154.00,274.00 1154.00,274.00
             1154.00,274.00 1154.00,64.00 1154.00,64.00
             1154.00,64.00 1260.00,64.00 1260.00,64.00 Z
           M 1441.00,64.00
           C 1441.00,64.00 1441.00,86.00 1441.00,86.00
             1441.00,86.00 1360.00,86.00 1360.00,86.00
             1360.00,86.00 1360.00,156.00 1360.00,156.00
             1360.00,156.00 1435.00,156.00 1435.00,156.00
             1435.00,156.00 1435.00,178.00 1435.00,178.00
             1435.00,178.00 1360.00,178.00 1360.00,178.00
             1360.00,178.00 1360.00,252.00 1360.00,252.00
             1360.00,252.00 1446.00,252.00 1446.00,252.00
             1446.00,252.00 1446.00,274.00 1446.00,274.00
             1446.00,274.00 1335.00,274.00 1335.00,274.00
             1335.00,274.00 1335.00,64.00 1335.00,64.00
             1335.00,64.00 1441.00,64.00 1441.00,64.00 Z
           M 1547.00,64.00
           C 1556.76,64.02 1555.72,64.96 1563.81,78.00
             1563.81,78.00 1581.00,105.00 1581.00,105.00
             1581.00,105.00 1666.00,239.00 1666.00,239.00
             1666.00,239.00 1666.00,64.00 1666.00,64.00
             1666.00,64.00 1691.00,64.00 1691.00,64.00
             1691.00,64.00 1691.00,274.00 1691.00,274.00
             1691.00,274.00 1667.00,274.00 1667.00,274.00
             1657.61,273.98 1659.36,273.62 1651.67,262.00
             1651.67,262.00 1633.00,233.00 1633.00,233.00
             1633.00,233.00 1584.31,157.00 1584.31,157.00
             1584.31,157.00 1547.00,98.00 1547.00,98.00
             1547.00,98.00 1547.00,274.00 1547.00,274.00
             1547.00,274.00 1522.00,274.00 1522.00,274.00
             1522.00,274.00 1522.00,64.00 1522.00,64.00
             1522.00,64.00 1547.00,64.00 1547.00,64.00 Z
           M 2108.00,64.00
           C 2108.00,64.00 2108.00,86.00 2108.00,86.00
             2108.00,86.00 2027.00,86.00 2027.00,86.00
             2027.00,86.00 2027.00,156.00 2027.00,156.00
             2027.00,156.00 2102.00,156.00 2102.00,156.00
             2102.00,156.00 2102.00,178.00 2102.00,178.00
             2102.00,178.00 2027.00,178.00 2027.00,178.00
             2027.00,178.00 2027.00,252.00 2027.00,252.00
             2027.00,252.00 2113.00,252.00 2113.00,252.00
             2113.00,252.00 2113.00,274.00 2113.00,274.00
             2113.00,274.00 2002.00,274.00 2002.00,274.00
             2002.00,274.00 2002.00,64.00 2002.00,64.00
             2002.00,64.00 2108.00,64.00 2108.00,64.00 Z
           M 813.00,106.00
           C 813.00,106.00 803.58,132.00 803.58,132.00
             803.58,132.00 789.95,169.00 789.95,169.00
             789.95,169.00 782.00,193.00 782.00,193.00
             782.00,193.00 853.00,193.00 853.00,193.00
             851.92,186.09 846.66,174.11 844.05,167.00
             844.05,167.00 825.31,116.00 825.31,116.00
             822.27,107.48 818.77,100.19 818.00,91.00
             818.00,91.00 813.00,106.00 813.00,106.00 Z
           M 87.00,124.15
           C 87.00,124.15 183.00,124.15 183.00,124.15
             204.18,124.00 215.26,121.96 235.00,132.04
             239.80,134.49 246.89,138.49 250.72,142.21
             250.72,142.21 262.37,154.17 262.37,154.17
             262.37,154.17 266.92,162.00 266.92,162.00
             266.92,162.00 271.36,169.00 271.36,169.00
             275.19,176.17 277.99,187.89 278.00,196.00
             278.00,196.00 278.00,221.00 278.00,221.00
             278.00,221.00 278.00,247.00 278.00,247.00
             277.99,254.93 274.38,267.89 270.74,275.00
             270.74,275.00 267.03,281.00 267.03,281.00
             267.03,281.00 262.81,288.91 262.81,288.91
             261.02,291.56 259.28,292.84 257.15,295.09
             257.15,295.09 249.99,302.90 249.99,302.90
             245.22,307.32 234.13,314.24 228.00,316.55
             221.78,318.88 215.46,319.23 209.00,320.20
             202.30,321.21 205.73,321.98 196.00,322.00
             196.00,322.00 45.00,322.00 45.00,322.00
             38.27,321.99 29.90,320.25 24.04,316.78
             21.24,315.12 19.97,313.35 17.84,311.00
             11.53,304.04 7.24,298.79 7.01,289.00
             6.72,276.35 10.82,269.56 19.58,260.87
             22.18,258.29 24.40,255.92 28.00,254.70
             30.43,253.88 33.44,254.00 36.00,254.00
             36.00,254.00 106.00,254.00 106.00,254.00
             106.00,254.00 172.00,254.00 172.00,254.00
             175.35,253.96 180.91,253.46 184.00,252.29
             186.26,251.44 188.97,249.54 191.00,248.16
             204.37,239.12 209.50,222.76 199.50,209.00
             197.58,206.35 193.75,202.60 191.00,200.81
             184.76,196.75 177.25,196.01 170.00,196.00
             170.00,196.00 45.00,196.00 45.00,196.00
             36.58,195.98 36.40,195.10 29.00,191.22
             17.04,184.95 7.34,174.15 7.01,160.00
             6.72,147.08 14.55,133.64 26.00,127.41
             29.17,125.69 32.51,125.09 36.00,124.15
             36.00,124.15 87.00,124.15 87.00,124.15 Z" />
</svg>
