<?xml version="1.0" encoding="utf-8"?>
	 
	 <svg version="1.1" id="Layer_2" xmlns="http://www.w3.org/2000/svg" xmlns:xlink="http://www.w3.org/1999/xlink" x="0px" y="0px"
	 viewBox="0 0 2180 332" xml:space="default">
	 
<title>logo</title>
  <path  id="Selection"
        fill="#FFFFFF" stroke="black" stroke-width="0"
        d="M 123.00,56.16
           C 123.00,56.16 222.00,56.16 222.00,56.16
             232.29,56.02 240.02,58.13 246.36,67.00
             255.63,79.96 249.91,100.77 234.00,105.36
             231.43,106.11 228.65,106.00 226.00,106.00
             226.00,106.00 75.00,106.00 75.00,106.00
             71.24,105.99 68.56,106.17 65.00,104.64
             44.41,95.75 44.04,62.88 71.00,56.16
             71.00,56.16 123.00,56.16 123.00,56.16 Z
           M 359.00,246.99
           C 376.36,254.21 398.55,258.14 417.00,253.08
             430.38,249.41 440.83,239.42 441.00,225.00
             441.03,222.19 441.10,218.72 440.47,216.00
             437.75,204.12 425.04,194.61 415.00,188.87
             395.46,177.70 364.41,165.82 350.90,148.00
             338.93,132.21 336.98,107.12 347.26,90.00
             353.58,79.47 362.93,72.30 374.00,67.31
             389.66,60.25 401.41,60.00 418.00,60.00
             427.28,60.00 433.69,59.95 443.00,61.61
             443.00,61.61 459.00,66.00 459.00,66.00
             459.00,66.00 459.00,95.00 459.00,95.00
             459.00,95.00 441.00,87.00 441.00,87.00
             427.49,82.45 405.67,81.02 392.00,85.35
             371.58,91.82 359.16,111.88 372.79,131.00
             379.39,140.26 391.93,147.20 402.00,152.25
             428.69,165.63 467.59,183.02 468.00,218.00
             468.09,225.92 468.32,231.26 465.96,239.00
             457.71,266.04 428.27,277.96 402.00,278.00
             402.00,278.00 386.00,278.00 386.00,278.00
             377.49,277.90 361.17,274.69 353.00,272.00
             350.21,271.08 344.50,269.45 342.60,267.35
             340.66,265.21 341.01,261.72 341.00,259.00
             341.00,259.00 341.00,237.00 341.00,237.00
             341.00,237.00 359.00,246.99 359.00,246.99 Z
           M 1912.00,259.00
           C 1912.00,261.10 1912.25,264.61 1911.01,266.35
             1909.73,268.14 1906.03,269.40 1904.00,270.19
             1898.48,272.33 1892.79,274.09 1887.00,275.34
             1881.38,276.56 1870.69,277.97 1865.00,278.00
             1842.51,278.11 1829.36,278.76 1808.00,269.14
             1783.09,257.92 1764.45,232.27 1758.24,206.00
             1754.35,189.56 1754.81,178.60 1755.00,162.00
             1755.09,154.77 1756.83,145.04 1758.63,138.00
             1768.04,101.28 1794.29,73.53 1831.00,63.42
             1848.55,58.59 1874.09,58.94 1892.00,62.08
             1896.08,62.80 1908.72,65.45 1911.01,68.65
             1912.25,70.39 1912.00,73.90 1912.00,76.00
             1912.00,76.00 1912.00,95.00 1912.00,95.00
             1903.70,92.63 1899.91,88.55 1884.00,84.89
             1859.27,79.19 1830.61,83.51 1811.00,100.30
             1802.46,107.61 1795.15,116.82 1790.32,127.00
             1784.30,139.69 1780.70,158.97 1781.01,173.00
             1781.80,207.61 1798.05,240.86 1833.00,251.97
             1850.05,257.39 1875.05,255.69 1892.00,250.25
             1892.00,250.25 1912.00,242.00 1912.00,242.00
             1912.00,242.00 1912.00,259.00 1912.00,259.00 Z
           M 668.00,64.00
           C 668.00,64.00 668.00,86.00 668.00,86.00
             668.00,86.00 608.00,86.00 608.00,86.00
             608.00,86.00 608.00,274.00 608.00,274.00
             608.00,274.00 583.00,274.00 583.00,274.00
             583.00,274.00 583.00,86.00 583.00,86.00
             583.00,86.00 523.00,86.00 523.00,86.00
             523.00,86.00 523.00,64.00 523.00,64.00
             523.00,64.00 668.00,64.00 668.00,64.00 Z
           M 811.00,64.00
           C 811.00,64.00 819.30,65.60 819.30,65.60
             819.30,65.60 825.20,79.00 825.20,79.00
             825.20,79.00 838.00,112.00 838.00,112.00
             838.00,112.00 879.42,219.00 879.42,219.00
             879.42,219.00 892.20,252.00 892.20,252.00
             892.20,252.00 900.00,274.00 900.00,274.00
             900.00,274.00 880.00,274.00 880.00,274.00
             870.39,273.98 871.85,273.85 866.58,260.00
             866.58,260.00 854.80,229.00 854.80,229.00
             853.80,226.45 850.91,218.12 849.30,216.60
             847.25,214.65 843.65,215.01 841.00,215.00
             841.00,215.00 770.00,215.00 770.00,215.00
             767.33,215.01 763.77,214.65 761.70,216.60
             759.55,218.61 757.05,226.92 756.00,230.00
             756.00,230.00 745.66,259.00 745.66,259.00
             741.38,271.32 741.98,273.94 733.00,274.00
             733.00,274.00 712.00,274.00 712.00,274.00
             712.00,274.00 730.95,223.00 730.95,223.00
             730.95,223.00 771.81,117.00 771.81,117.00
             771.81,117.00 792.00,64.00 792.00,64.00
             792.00,64.00 811.00,64.00 811.00,64.00 Z
           M 991.00,64.00
           C 991.00,64.00 991.00,252.00 991.00,252.00
             991.00,252.00 1074.00,252.00 1074.00,252.00
             1074.00,252.00 1074.00,274.00 1074.00,274.00
             1074.00,274.00 966.00,274.00 966.00,274.00
             966.00,274.00 966.00,64.00 966.00,64.00
             966.00,64.00 991.00,64.00 991.00,64.00 Z
           M 1248.00,64.00
           C 1248.00,64.00 1248.00,86.00 1248.00,86.00
             1248.00,86.00 1167.00,86.00 1167.00,86.00
             1167.00,86.00 1167.00,159.00 1167.00,159.00
             1167.00,159.00 1242.00,159.00 1242.00,159.00
             1242.00,159.00 1242.00,181.00 1242.00,181.00
             1242.00,181.00 1167.00,181.00 1167.00,181.00
             1167.00,181.00 1167.00,274.00 1167.00,274.00
             1167.00,274.00 1142.00,274.00 1142.00,274.00
             1142.00,274.00 1142.00,64.00 1142.00,64.00
             1142.00,64.00 1248.00,64.00 1248.00,64.00 Z
           M 1429.00,64.00
           C 1429.00,64.00 1429.00,86.00 1429.00,86.00
             1429.00,86.00 1348.00,86.00 1348.00,86.00
             1348.00,86.00 1348.00,156.00 1348.00,156.00
             1348.00,156.00 1423.00,156.00 1423.00,156.00
             1423.00,156.00 1423.00,178.00 1423.00,178.00
             1423.00,178.00 1348.00,178.00 1348.00,178.00
             1348.00,178.00 1348.00,252.00 1348.00,252.00
             1348.00,252.00 1434.00,252.00 1434.00,252.00
             1434.00,252.00 1434.00,274.00 1434.00,274.00
             1434.00,274.00 1323.00,274.00 1323.00,274.00
             1323.00,274.00 1323.00,64.00 1323.00,64.00
             1323.00,64.00 1429.00,64.00 1429.00,64.00 Z
           M 1535.00,64.00
           C 1544.37,64.02 1542.88,64.11 1551.05,77.00
             1551.05,77.00 1569.58,106.00 1569.58,106.00
             1569.58,106.00 1620.95,187.00 1620.95,187.00
             1620.95,187.00 1654.00,239.00 1654.00,239.00
             1654.00,239.00 1654.00,64.00 1654.00,64.00
             1654.00,64.00 1679.00,64.00 1679.00,64.00
             1679.00,64.00 1679.00,274.00 1679.00,274.00
             1679.00,274.00 1655.00,274.00 1655.00,274.00
             1645.72,273.98 1646.38,272.55 1639.05,261.00
             1639.05,261.00 1620.58,232.00 1620.58,232.00
             1620.58,232.00 1566.66,148.00 1566.66,148.00
             1557.22,133.55 1540.92,109.66 1534.00,95.00
             1536.00,110.17 1535.00,142.12 1535.00,159.00
             1535.00,159.00 1535.00,274.00 1535.00,274.00
             1535.00,274.00 1510.00,274.00 1510.00,274.00
             1510.00,274.00 1510.00,64.00 1510.00,64.00
             1510.00,64.00 1535.00,64.00 1535.00,64.00 Z
           M 2096.00,64.00
           C 2096.00,64.00 2096.00,86.00 2096.00,86.00
             2096.00,86.00 2015.00,86.00 2015.00,86.00
             2015.00,86.00 2015.00,156.00 2015.00,156.00
             2015.00,156.00 2090.00,156.00 2090.00,156.00
             2090.00,156.00 2090.00,178.00 2090.00,178.00
             2090.00,178.00 2015.00,178.00 2015.00,178.00
             2015.00,178.00 2015.00,252.00 2015.00,252.00
             2015.00,252.00 2101.00,252.00 2101.00,252.00
             2101.00,252.00 2101.00,274.00 2101.00,274.00
             2101.00,274.00 1990.00,274.00 1990.00,274.00
             1990.00,274.00 1990.00,64.00 1990.00,64.00
             1990.00,64.00 2096.00,64.00 2096.00,64.00 Z
           M 796.58,118.00
           C 796.58,118.00 769.00,193.00 769.00,193.00
             769.00,193.00 841.00,193.00 841.00,193.00
             839.96,186.38 834.03,171.97 831.42,165.00
             831.42,165.00 815.19,121.00 815.19,121.00
             811.83,112.15 806.78,100.29 806.00,91.00
             806.00,91.00 796.58,118.00 796.58,118.00 Z
           M 118.00,137.12
           C 118.00,137.12 175.00,137.12 175.00,137.12
             175.00,137.12 195.00,137.12 195.00,137.12
             209.13,137.02 223.83,143.25 234.00,153.04
             243.21,161.91 251.82,178.00 252.00,191.00
             252.00,191.00 252.00,226.00 252.00,226.00
             251.98,234.84 251.23,233.06 248.86,241.00
             240.30,269.73 218.29,283.95 189.00,284.00
             189.00,284.00 80.00,284.00 80.00,284.00
             69.01,283.98 60.20,281.18 54.36,271.00
             47.64,259.27 51.82,241.34 65.00,236.01
             67.86,234.85 70.97,235.00 74.00,235.00
             74.00,235.00 126.00,235.00 126.00,235.00
             126.00,235.00 164.00,235.00 164.00,235.00
             172.33,235.00 179.58,235.78 187.00,231.03
             189.74,229.28 192.60,226.56 194.61,224.00
             204.88,210.94 196.00,195.55 182.00,190.55
             177.63,188.98 174.52,189.01 170.00,189.00
             170.00,189.00 80.00,189.00 80.00,189.00
             64.51,188.97 50.08,177.47 51.09,161.00
             51.85,148.71 60.36,140.23 72.00,137.12
             72.00,137.12 118.00,137.12 118.00,137.12 Z" />
</svg>
